if (_typeface_js && _typeface_js.loadFace) _typeface_js.loadFace({"glyphs":{"S":{"x_min":1,"x_max":834,"ha":1111,"o":"m 834 0 l 1 0 l 1 278 l 556 278 l 556 555 l 1 555 l 1 1389 l 834 1389 l 834 1111 l 279 1111 l 279 833 l 834 833 l 834 0 "},"/":{"x_min":0,"x_max":834,"ha":1111,"o":"m 834 834 l 556 834 l 556 556 l 278 556 l 278 0 l 0 0 l 0 556 l 278 556 l 278 833 l 556 833 l 556 1389 l 834 1389 l 834 834 "},"K":{"x_min":1,"x_max":834,"ha":1111,"o":"m 834 0 l 556 0 l 556 555 l 279 555 l 279 0 l 1 0 l 1 1389 l 279 1389 l 279 833 l 556 833 l 556 1389 l 834 1389 l 834 833 l 556 833 l 556 555 l 834 555 l 834 0 "},"7":{"x_min":1,"x_max":834,"ha":1111,"o":"m 834 555 l 556 555 l 556 0 l 278 0 l 278 555 l 556 555 l 556 1111 l 1 1111 l 1 1389 l 834 1389 l 834 555 "},"d":{"x_min":1,"x_max":834,"ha":1111,"o":"m 834 0 l 1 0 l 1 833 l 556 833 l 556 1389 l 834 1389 l 834 0 m 556 278 l 556 555 l 279 555 l 279 278 l 556 278 "},",":{"x_min":1,"x_max":557,"ha":833,"o":"m 557 0 l 279 0 l 279 -278 l 1 -278 l 1 0 l 279 0 l 279 278 l 557 278 l 557 0 "},"Y":{"x_min":1,"x_max":834,"ha":1111,"o":"m 834 555 l 556 555 l 556 0 l 279 0 l 279 555 l 1 555 l 1 1389 l 279 1389 l 279 833 l 556 833 l 556 1389 l 834 1389 l 834 555 "},"E":{"x_min":1,"x_max":834.328125,"ha":1111,"o":"m 834 0 l 1 0 l 1 1389 l 834 1389 l 834 1111 l 279 1111 l 279 833 l 834 833 l 834 555 l 279 555 l 279 278 l 834 278 l 834 0 "},"y":{"x_min":1,"x_max":834,"ha":1111,"o":"m 834 -278 l 556 -278 l 556 -556 l 279 -556 l 279 -278 l 556 -278 l 556 0 l 1 0 l 1 833 l 279 833 l 279 278 l 556 278 l 556 833 l 834 833 l 834 -278 "},"\"":{"x_min":1,"x_max":834,"ha":1111,"o":"m 834 833 l 556 833 l 556 1389 l 834 1389 l 834 833 m 279 833 l 1 833 l 1 1389 l 279 1389 l 279 833 "},"g":{"x_min":1,"x_max":834,"ha":1111,"o":"m 834 -278 l 556 -278 l 556 -556 l 279 -556 l 279 -278 l 556 -278 l 556 0 l 1 0 l 1 833 l 834 833 l 834 -278 m 556 278 l 556 555 l 279 555 l 279 278 l 556 278 "},"e":{"x_min":1,"x_max":834,"ha":1111,"o":"m 834 0 l 279 0 l 279 -278 l 556 -278 l 556 -556 l 279 -556 l 279 -278 l 1 -278 l 1 833 l 834 833 l 834 0 m 556 278 l 556 555 l 279 555 l 279 278 l 556 278 "},"J":{"x_min":1,"x_max":834,"ha":1111,"o":"m 834 0 l 1 0 l 1 555 l 279 555 l 279 278 l 556 278 l 556 1111 l 279 1111 l 279 1389 l 834 1389 l 834 0 "},"|":{"x_min":1,"x_max":279,"ha":556,"o":"m 279 0 l 1 0 l 1 1389 l 279 1389 l 279 0 "},"‐":{"x_min":1,"x_max":834.328125,"ha":1111,"o":"m 834 556 l 1 556 l 1 833 l 834 833 l 834 556 "},"^":{"x_min":1,"x_max":835,"ha":1111,"o":"m 835 833 l 557 833 l 557 1111 l 279 1111 l 279 833 l 1 833 l 1 1111 l 279 1111 l 279 1389 l 557 1389 l 557 1111 l 835 1111 l 835 833 "},"q":{"x_min":1,"x_max":834,"ha":1111,"o":"m 834 -556 l 556 -556 l 556 0 l 1 0 l 1 833 l 834 833 l 834 -556 m 556 278 l 556 555 l 279 555 l 279 278 l 556 278 "},"b":{"x_min":1,"x_max":834,"ha":1111,"o":"m 834 0 l 1 0 l 1 1389 l 279 1389 l 279 833 l 834 833 l 834 0 m 556 278 l 556 555 l 279 555 l 279 278 l 556 278 "},"D":{"x_min":1,"x_max":834,"ha":1111,"o":"m 834 0 l 1 0 l 1 1389 l 556 1389 l 556 1111 l 834 1111 l 834 0 m 556 278 l 556 1111 l 279 1111 l 279 278 l 556 278 "},"z":{"x_min":1,"x_max":834,"ha":1111,"o":"m 834 555 l 556 555 l 556 833 l 1 833 l 1 1111 l 834 1111 l 834 555 m 834 0 l 1 0 l 1 555 l 279 555 l 279 278 l 834 278 l 834 0 "},"w":{"x_min":1,"x_max":1390,"ha":1667,"o":"m 1390 278 l 1115 278 l 1115 0 l 1 0 l 1 833 l 279 833 l 279 278 l 557 278 l 557 833 l 835 833 l 835 278 l 1115 278 l 1115 833 l 1390 833 l 1390 278 "},"$":{"x_min":1,"x_max":834,"ha":1111,"o":"m 834 0 l 556 0 l 556 -278 l 279 -278 l 279 0 l 1 0 l 1 278 l 556 278 l 556 555 l 1 555 l 1 1389 l 279 1389 l 279 1667 l 556 1667 l 556 1389 l 834 1389 l 834 1111 l 279 1111 l 279 833 l 834 833 l 834 0 "},"\\":{"x_min":1,"x_max":1391,"ha":1667,"o":"m 1391 0 l 1116 0 l 1116 277 l 835 277 l 835 555 l 557 555 l 557 833 l 279 833 l 279 1111 l 1 1111 l 1 1389 l 279 1389 l 279 1111 l 557 1111 l 557 833 l 835 833 l 835 555 l 1116 555 l 1116 277 l 1391 277 l 1391 0 "},"~":{"x_min":1,"x_max":1115,"ha":1389,"o":"m 1115 1111 l 834 1111 l 834 833 l 557 833 l 557 1111 l 279 1111 l 279 833 l 1 833 l 1 1111 l 279 1111 l 279 1389 l 557 1389 l 557 1111 l 834 1111 l 834 1389 l 1115 1389 l 1115 1111 "},"-":{"x_min":1,"x_max":834.328125,"ha":1111,"o":"m 834 556 l 1 556 l 1 833 l 834 833 l 834 556 "},"Q":{"x_min":1,"x_max":1114.890625,"ha":1389,"o":"m 1114 0 l 1 0 l 1 1389 l 834 1389 l 834 278 l 1114 278 l 1114 0 m 556 278 l 556 1111 l 279 1111 l 279 278 l 556 278 "},"M":{"x_min":1,"x_max":1390,"ha":1667,"o":"m 1390 0 l 1115 0 l 1115 1111 l 835 1111 l 835 0 l 557 0 l 557 1111 l 279 1111 l 279 0 l 1 0 l 1 1389 l 1390 1389 l 1390 0 "},"C":{"x_min":1,"x_max":834,"ha":1111,"o":"m 834 0 l 1 0 l 1 1389 l 834 1389 l 834 833 l 556 833 l 556 1111 l 279 1111 l 279 278 l 556 278 l 556 555 l 834 555 l 834 0 "},"[":{"x_min":1,"x_max":556.5625,"ha":833,"o":"m 556 0 l 1 0 l 1 1389 l 556 1389 l 556 1111 l 279 1111 l 279 278 l 556 278 l 556 0 "},"L":{"x_min":1,"x_max":834.328125,"ha":1111,"o":"m 834 0 l 1 0 l 1 1389 l 279 1389 l 279 278 l 834 278 l 834 0 "},"!":{"x_min":1,"x_max":279,"ha":556,"o":"m 279 555 l 1 555 l 1 1389 l 279 1389 l 279 555 m 279 0 l 1 0 l 1 278 l 279 278 l 279 0 "}," ":{"x_min":0,"x_max":0,"ha":278},"{":{"x_min":1,"x_max":835,"ha":1111,"o":"m 835 0 l 557 0 l 557 278 l 279 278 l 279 555 l 1 555 l 1 833 l 279 833 l 279 1111 l 557 1111 l 557 1389 l 835 1389 l 835 1111 l 557 1111 l 557 278 l 835 278 l 835 0 "},"X":{"x_min":1,"x_max":835,"ha":1111,"o":"m 835 0 l 557 0 l 557 556 l 279 556 l 279 0 l 1 0 l 1 556 l 279 556 l 279 834 l 1 834 l 1 1389 l 279 1389 l 279 833 l 557 833 l 557 1389 l 835 1389 l 835 834 l 557 834 l 557 556 l 835 556 l 835 0 "},"P":{"x_min":1,"x_max":834,"ha":1111,"o":"m 834 555 l 279 555 l 279 0 l 1 0 l 1 1389 l 834 1389 l 834 555 m 556 833 l 556 1111 l 279 1111 l 279 833 l 556 833 "},"%":{"x_min":0,"x_max":834,"ha":1111,"o":"m 278 1111 l 0 1111 l 0 1389 l 278 1389 l 278 1111 m 834 834 l 556 834 l 556 556 l 278 556 l 278 0 l 0 0 l 0 556 l 278 556 l 278 833 l 556 833 l 556 1389 l 834 1389 l 834 834 m 834 0 l 556 0 l 556 278 l 834 278 l 834 0 "},"#":{"x_min":1,"x_max":1389.890625,"ha":1667,"o":"m 1389 278 l 1115 278 l 1115 0 l 834 0 l 834 278 l 557 278 l 557 0 l 279 0 l 279 278 l 1 278 l 1 556 l 279 556 l 279 833 l 1 833 l 1 1111 l 279 1111 l 279 1389 l 557 1389 l 557 1111 l 834 1111 l 834 1389 l 1115 1389 l 1115 1111 l 1389 1111 l 1389 833 l 1115 833 l 1115 556 l 1389 556 l 1389 278 m 834 556 l 834 833 l 557 833 l 557 556 l 834 556 "},"_":{"x_min":1,"x_max":834.328125,"ha":1111,"o":"m 834 0 l 1 0 l 1 278 l 834 278 l 834 0 "},"+":{"x_min":1,"x_max":834.328125,"ha":1111,"o":"m 834 555 l 557 555 l 557 0 l 279 0 l 279 555 l 1 555 l 1 833 l 279 833 l 279 1389 l 557 1389 l 557 833 l 834 833 l 834 555 "},")":{"x_min":1,"x_max":557,"ha":833,"o":"m 557 278 l 279 278 l 279 0 l 1 0 l 1 278 l 279 278 l 279 1111 l 1 1111 l 1 1389 l 279 1389 l 279 1111 l 557 1111 l 557 278 "},"'":{"x_min":1,"x_max":279,"ha":556,"o":"m 279 833 l 1 833 l 1 1389 l 279 1389 l 279 833 "},"}":{"x_min":1,"x_max":834.328125,"ha":1111,"o":"m 834 555 l 557 555 l 557 278 l 279 278 l 279 0 l 1 0 l 1 278 l 279 278 l 279 1111 l 1 1111 l 1 1389 l 279 1389 l 279 1111 l 557 1111 l 557 833 l 834 833 l 834 555 "},"a":{"x_min":1,"x_max":834,"ha":1111,"o":"m 834 278 l 556 278 l 556 0 l 1 0 l 1 833 l 834 833 l 834 278 m 556 278 l 556 555 l 279 555 l 279 278 l 556 278 "},"T":{"x_min":1,"x_max":834.328125,"ha":1111,"o":"m 834 1111 l 557 1111 l 557 0 l 279 0 l 279 1111 l 1 1111 l 1 1389 l 834 1389 l 834 1111 "},"=":{"x_min":1,"x_max":834.328125,"ha":1111,"o":"m 834 833 l 1 833 l 1 1111 l 834 1111 l 834 833 m 834 278 l 1 278 l 1 556 l 834 556 l 834 278 "},"N":{"x_min":1,"x_max":834,"ha":1111,"o":"m 834 0 l 556 0 l 556 1111 l 279 1111 l 279 0 l 1 0 l 1 1389 l 834 1389 l 834 0 "},"2":{"x_min":1,"x_max":834,"ha":1111,"o":"m 834 0 l 1 0 l 1 833 l 556 833 l 556 1111 l 1 1111 l 1 1389 l 834 1389 l 834 555 l 279 555 l 279 278 l 834 278 l 834 0 "},"j":{"x_min":1,"x_max":557,"ha":833,"o":"m 557 1111 l 279 1111 l 279 1389 l 557 1389 l 557 1111 m 557 0 l 279 0 l 279 -278 l 1 -278 l 1 0 l 279 0 l 279 833 l 557 833 l 557 0 "},"Z":{"x_min":0,"x_max":834,"ha":1111,"o":"m 834 0 l 0 0 l 0 555 l 278 555 l 278 833 l 556 833 l 556 1111 l 0 1111 l 0 1389 l 834 1389 l 834 833 l 556 833 l 556 555 l 278 555 l 278 278 l 834 278 l 834 0 "},"u":{"x_min":1,"x_max":834,"ha":1111,"o":"m 834 278 l 556 278 l 556 0 l 1 0 l 1 833 l 279 833 l 279 278 l 556 278 l 556 833 l 834 833 l 834 278 "},"1":{"x_min":1,"x_max":557,"ha":833,"o":"m 557 0 l 279 0 l 279 833 l 1 833 l 1 1111 l 279 1111 l 279 1389 l 557 1389 l 557 0 "},"k":{"x_min":1,"x_max":834,"ha":1111,"o":"m 834 0 l 556 0 l 556 277 l 279 277 l 279 0 l 1 0 l 1 1389 l 279 1389 l 279 555 l 556 555 l 556 833 l 834 833 l 834 555 l 556 555 l 556 277 l 834 277 l 834 0 "},"<":{"x_min":1,"x_max":835,"ha":1111,"o":"m 835 0 l 557 0 l 557 277 l 279 277 l 279 555 l 1 555 l 1 833 l 279 833 l 279 1111 l 557 1111 l 557 1389 l 835 1389 l 835 1111 l 557 1111 l 557 833 l 279 833 l 279 555 l 557 555 l 557 277 l 835 277 l 835 0 "},"t":{"x_min":1,"x_max":834.328125,"ha":1111,"o":"m 834 0 l 279 0 l 279 555 l 1 555 l 1 833 l 279 833 l 279 1389 l 557 1389 l 557 833 l 834 833 l 834 555 l 557 555 l 557 278 l 834 278 l 834 0 "},"W":{"x_min":1,"x_max":1390,"ha":1667,"o":"m 1390 0 l 1 0 l 1 1389 l 279 1389 l 279 278 l 557 278 l 557 1389 l 835 1389 l 835 278 l 1115 278 l 1115 1389 l 1390 1389 l 1390 0 "},"v":{"x_min":1,"x_max":834,"ha":1111,"o":"m 834 278 l 556 278 l 556 0 l 279 0 l 279 278 l 1 278 l 1 833 l 279 833 l 279 278 l 556 278 l 556 833 l 834 833 l 834 278 "},">":{"x_min":0,"x_max":834,"ha":1111,"o":"m 834 556 l 556 556 l 556 278 l 278 278 l 278 0 l 0 0 l 0 278 l 278 278 l 278 556 l 556 556 l 556 833 l 278 833 l 278 1111 l 0 1111 l 0 1389 l 278 1389 l 278 1111 l 556 1111 l 556 833 l 834 833 l 834 556 "},"s":{"x_min":1,"x_max":834,"ha":1111,"o":"m 834 833 l 279 833 l 279 555 l 1 555 l 1 1111 l 834 1111 l 834 833 m 834 0 l 1 0 l 1 278 l 556 278 l 556 555 l 834 555 l 834 0 "},"B":{"x_min":1,"x_max":834,"ha":1111,"o":"m 834 0 l 1 0 l 1 1389 l 834 1389 l 834 834 l 556 834 l 556 556 l 834 556 l 834 0 m 556 833 l 556 1111 l 279 1111 l 279 833 l 556 833 m 556 278 l 556 556 l 279 556 l 279 278 l 556 278 "},"?":{"x_min":1,"x_max":835,"ha":1111,"o":"m 835 555 l 279 555 l 279 833 l 557 833 l 557 1111 l 1 1111 l 1 1389 l 835 1389 l 835 555 m 557 0 l 279 0 l 279 278 l 557 278 l 557 0 "},"H":{"x_min":1,"x_max":834,"ha":1111,"o":"m 834 0 l 556 0 l 556 555 l 279 555 l 279 0 l 1 0 l 1 1389 l 279 1389 l 279 833 l 556 833 l 556 1389 l 834 1389 l 834 0 "},"c":{"x_min":1,"x_max":834.328125,"ha":1111,"o":"m 834 0 l 1 0 l 1 833 l 834 833 l 834 555 l 279 555 l 279 278 l 834 278 l 834 0 "},"&":{"x_min":0,"x_max":1114.890625,"ha":1389,"o":"m 1114 278 l 834 278 l 834 0 l 0 0 l 0 556 l 278 556 l 278 834 l 0 834 l 0 1389 l 834 1389 l 834 834 l 556 834 l 556 556 l 1114 556 l 1114 278 m 556 833 l 556 1111 l 278 1111 l 278 833 l 556 833 m 556 278 l 556 556 l 278 556 l 278 278 l 556 278 "},"I":{"x_min":1,"x_max":834.328125,"ha":1111,"o":"m 834 0 l 1 0 l 1 278 l 279 278 l 279 1111 l 1 1111 l 1 1389 l 834 1389 l 834 1111 l 557 1111 l 557 278 l 834 278 l 834 0 "},"G":{"x_min":1,"x_max":834,"ha":1111,"o":"m 834 0 l 1 0 l 1 1389 l 834 1389 l 834 1111 l 279 1111 l 279 278 l 556 278 l 556 833 l 834 833 l 834 0 "},"(":{"x_min":1,"x_max":557,"ha":833,"o":"m 557 0 l 279 0 l 279 278 l 1 278 l 1 1111 l 279 1111 l 279 1389 l 557 1389 l 557 1111 l 279 1111 l 279 278 l 557 278 l 557 0 "},"`":{"x_min":1,"x_max":557,"ha":833,"o":"m 557 833 l 279 833 l 279 1111 l 1 1111 l 1 1389 l 279 1389 l 279 1111 l 557 1111 l 557 833 "},"U":{"x_min":1,"x_max":834,"ha":1111,"o":"m 834 0 l 1 0 l 1 1389 l 279 1389 l 279 278 l 556 278 l 556 1389 l 834 1389 l 834 0 "},"F":{"x_min":1,"x_max":834.328125,"ha":1111,"o":"m 834 555 l 279 555 l 279 0 l 1 0 l 1 1389 l 834 1389 l 834 1111 l 279 1111 l 279 833 l 834 833 l 834 555 "},"r":{"x_min":1,"x_max":834,"ha":1111,"o":"m 834 277 l 556 277 l 556 555 l 279 555 l 279 0 l 1 0 l 1 833 l 834 833 l 834 277 "},":":{"x_min":1,"x_max":279,"ha":556,"o":"m 279 833 l 1 833 l 1 1111 l 279 1111 l 279 833 m 279 278 l 1 278 l 1 556 l 279 556 l 279 278 "},"x":{"x_min":1,"x_max":835,"ha":1111,"o":"m 835 0 l 557 0 l 557 277 l 279 277 l 279 0 l 1 0 l 1 277 l 279 277 l 279 555 l 1 555 l 1 833 l 279 833 l 279 555 l 557 555 l 557 833 l 835 833 l 835 555 l 557 555 l 557 277 l 835 277 l 835 0 "},"*":{"x_min":1,"x_max":1390,"ha":1667,"o":"m 1390 0 l 1115 0 l 1115 556 l 835 556 l 835 0 l 557 0 l 557 556 l 279 556 l 279 0 l 1 0 l 1 556 l 279 556 l 279 834 l 1 834 l 1 1389 l 279 1389 l 279 833 l 557 833 l 557 1389 l 835 1389 l 835 833 l 1115 833 l 1115 1389 l 1390 1389 l 1390 834 l 1115 834 l 1115 556 l 1390 556 l 1390 0 "},"V":{"x_min":1,"x_max":834,"ha":1111,"o":"m 834 278 l 556 278 l 556 0 l 279 0 l 279 278 l 1 278 l 1 1389 l 279 1389 l 279 278 l 556 278 l 556 1389 l 834 1389 l 834 278 "},"h":{"x_min":1,"x_max":834,"ha":1111,"o":"m 834 0 l 556 0 l 556 555 l 279 555 l 279 0 l 1 0 l 1 1389 l 279 1389 l 279 833 l 556 833 l 556 555 l 834 555 l 834 0 "},"0":{"x_min":1,"x_max":834,"ha":1111,"o":"m 834 0 l 1 0 l 1 1389 l 834 1389 l 834 0 m 556 278 l 556 1111 l 279 1111 l 279 278 l 556 278 "},".":{"x_min":1,"x_max":279,"ha":556,"o":"m 279 0 l 1 0 l 1 278 l 279 278 l 279 0 "},"@":{"x_min":1,"x_max":834,"ha":1111,"o":"m 834 0 l 279 0 l 279 278 l 1 278 l 1 1389 l 556 1389 l 556 1111 l 834 1111 l 834 555 l 279 555 l 279 278 l 834 278 l 834 0 m 556 833 l 556 1111 l 279 1111 l 279 833 l 556 833 "},"f":{"x_min":1,"x_max":834,"ha":1111,"o":"m 834 555 l 556 555 l 556 0 l 278 0 l 278 555 l 1 555 l 1 833 l 278 833 l 278 1111 l 556 1111 l 556 1389 l 834 1389 l 834 1111 l 556 1111 l 556 833 l 834 833 l 834 555 "},";":{"x_min":1,"x_max":557,"ha":833,"o":"m 557 833 l 279 833 l 279 1111 l 557 1111 l 557 833 m 557 278 l 279 278 l 279 0 l 1 0 l 1 278 l 279 278 l 279 556 l 557 556 l 557 278 "},"i":{"x_min":1,"x_max":279,"ha":556,"o":"m 279 1111 l 1 1111 l 1 1389 l 279 1389 l 279 1111 m 279 0 l 1 0 l 1 833 l 279 833 l 279 0 "},"6":{"x_min":1,"x_max":834,"ha":1111,"o":"m 834 0 l 1 0 l 1 1389 l 834 1389 l 834 1111 l 279 1111 l 279 833 l 834 833 l 834 0 m 556 278 l 556 555 l 279 555 l 279 278 l 556 278 "},"A":{"x_min":1,"x_max":834,"ha":1111,"o":"m 834 0 l 556 0 l 556 555 l 279 555 l 279 0 l 1 0 l 1 1389 l 834 1389 l 834 0 m 556 833 l 556 1111 l 279 1111 l 279 833 l 556 833 "},"n":{"x_min":1,"x_max":834,"ha":1111,"o":"m 834 0 l 556 0 l 556 555 l 279 555 l 279 0 l 1 0 l 1 833 l 556 833 l 556 555 l 834 555 l 834 0 "},"O":{"x_min":1,"x_max":834,"ha":1111,"o":"m 834 0 l 1 0 l 1 1389 l 834 1389 l 834 0 m 556 278 l 556 1111 l 279 1111 l 279 278 l 556 278 "},"3":{"x_min":1,"x_max":834,"ha":1111,"o":"m 834 0 l 1 0 l 1 278 l 556 278 l 556 555 l 1 555 l 1 833 l 556 833 l 556 1111 l 1 1111 l 1 1389 l 834 1389 l 834 0 "},"]":{"x_min":1,"x_max":557,"ha":833,"o":"m 557 0 l 1 0 l 1 278 l 279 278 l 279 1111 l 1 1111 l 1 1389 l 557 1389 l 557 0 "},"m":{"x_min":1,"x_max":1390,"ha":1667,"o":"m 1390 0 l 1115 0 l 1115 555 l 835 555 l 835 0 l 557 0 l 557 555 l 279 555 l 279 0 l 1 0 l 1 833 l 1115 833 l 1115 555 l 1390 555 l 1390 0 "},"9":{"x_min":1,"x_max":834,"ha":1111,"o":"m 834 0 l 1 0 l 1 278 l 556 278 l 556 555 l 1 555 l 1 1389 l 834 1389 l 834 0 m 556 833 l 556 1111 l 279 1111 l 279 833 l 556 833 "},"l":{"x_min":1,"x_max":279,"ha":556,"o":"m 279 0 l 1 0 l 1 1389 l 279 1389 l 279 0 "},"8":{"x_min":1,"x_max":834,"ha":1111,"o":"m 834 0 l 1 0 l 1 1389 l 834 1389 l 834 0 m 556 833 l 556 1111 l 279 1111 l 279 833 l 556 833 m 556 278 l 556 555 l 279 555 l 279 278 l 556 278 "},"p":{"x_min":1,"x_max":834,"ha":1111,"o":"m 834 0 l 279 0 l 279 -556 l 1 -556 l 1 833 l 834 833 l 834 0 m 556 278 l 556 555 l 279 555 l 279 278 l 556 278 "},"4":{"x_min":1,"x_max":834,"ha":1111,"o":"m 834 0 l 556 0 l 556 555 l 1 555 l 1 1389 l 279 1389 l 279 833 l 556 833 l 556 1389 l 834 1389 l 834 0 "},"R":{"x_min":1,"x_max":834,"ha":1111,"o":"m 834 0 l 556 0 l 556 556 l 279 556 l 279 0 l 1 0 l 1 1389 l 834 1389 l 834 834 l 556 834 l 556 556 l 834 556 l 834 0 m 556 833 l 556 1111 l 279 1111 l 279 833 l 556 833 "},"o":{"x_min":1,"x_max":834,"ha":1111,"o":"m 834 0 l 1 0 l 1 833 l 834 833 l 834 0 m 556 278 l 556 555 l 279 555 l 279 278 l 556 278 "},"5":{"x_min":1,"x_max":834,"ha":1111,"o":"m 834 0 l 1 0 l 1 278 l 556 278 l 556 555 l 1 555 l 1 1389 l 834 1389 l 834 1111 l 279 1111 l 279 833 l 834 833 l 834 0 "}}}
